<svg width="106" height="58" viewBox="0 0 106 58" fill="none" xmlns="http://www.w3.org/2000/svg">
<path d="M30.3099 53.4116C24.5131 54.8893 18.6831 56.3709 12.8199 57.8564C12.4237 57.9574 12.1758 57.8122 12.0763 57.4207C8.26702 42.4296 4.45414 27.437 0.637718 12.4429C0.472747 11.7948 0.325537 11.1945 0.196086 10.642C0.169249 10.5283 0.203584 10.4024 0.299094 10.2643C0.405654 10.1116 0.694549 10.0642 0.875701 10.0192C10.5703 7.56282 19.8556 5.20745 28.7317 2.95311C29.2882 2.81182 29.8154 2.67329 30.3135 2.53753C30.3593 2.5249 30.3822 2.4949 30.3822 2.44754L30.3834 0.73548C30.3834 0.619608 30.4293 0.508482 30.511 0.426548C30.5927 0.344614 30.7035 0.298584 30.8191 0.298584H76.6008C76.7167 0.298584 76.8278 0.344614 76.9097 0.426548C76.9917 0.508482 77.0377 0.619608 77.0377 0.73548V2.73881C77.0377 2.80432 77.0697 2.84498 77.1336 2.86076C86.5969 5.19087 96.0259 7.52217 105.421 9.85465C105.724 9.93042 105.865 10.1992 105.791 10.4976C101.94 26.0356 98.1074 41.5168 94.2933 56.9411C94.1879 57.3662 94.1252 57.854 93.5201 57.706C88.1322 56.3815 82.6621 55.0274 77.1099 53.6437C77.0618 53.6319 77.0377 53.6508 77.0377 53.7005V56.8571C77.0377 56.9786 76.9895 57.0951 76.9038 57.1811C76.8181 57.267 76.7019 57.3153 76.5807 57.3153H30.8404C30.7192 57.3153 30.6029 57.267 30.5172 57.1811C30.4315 57.0951 30.3834 56.9786 30.3834 56.8571V53.4697C30.3834 53.4191 30.3589 53.3998 30.3099 53.4116ZM73.4987 5.63961C73.4987 5.63145 73.4955 5.62361 73.4897 5.61784C73.4839 5.61207 73.4761 5.60882 73.4679 5.60882H33.9507C33.9426 5.60882 33.9347 5.61207 33.929 5.61784C33.9232 5.62361 33.92 5.63145 33.92 5.63961V43.7478C33.92 43.756 33.9232 43.7638 33.929 43.7696C33.9347 43.7754 33.9426 43.7786 33.9507 43.7786H73.4679C73.4761 43.7786 73.4839 43.7754 73.4897 43.7696C73.4955 43.7638 73.4987 43.756 73.4987 43.7478V5.63961ZM4.64082 13.7843C4.50427 13.7678 4.38468 13.7887 4.28207 13.8471C4.25975 13.8599 4.24088 13.8778 4.22706 13.8993C4.21325 13.9207 4.20491 13.9451 4.20274 13.9702C4.19485 14.0594 4.20274 14.151 4.22642 14.2449C4.42297 15.0058 4.6053 15.7229 4.77343 16.3962C4.80421 16.5194 4.78053 16.6212 4.8646 16.7278C4.88986 16.7593 4.90209 16.7953 4.9013 16.8355C4.89735 16.9618 4.92498 17.0747 4.98418 17.1741C5.01102 17.2191 5.02365 17.2677 5.02207 17.3198C5.01733 17.4405 5.04457 17.5499 5.10377 17.6477C5.13139 17.6927 5.14402 17.7413 5.14165 17.7934C5.13534 17.9149 5.16336 18.0262 5.22572 18.1273C5.25019 18.1675 5.26124 18.2113 5.25887 18.2587C5.25571 18.3329 5.26558 18.4035 5.28847 18.4706C5.31452 18.544 5.3378 18.619 5.35833 18.6956C5.48541 19.1668 5.60262 19.6282 5.70997 20.0797C5.73957 20.2052 5.73839 20.339 5.81417 20.4467C5.84021 20.483 5.85205 20.5237 5.84969 20.5687C5.84416 20.6871 5.86981 20.7905 5.92665 20.8789C5.95585 20.9239 5.96927 20.9728 5.9669 21.0257C5.96059 21.1465 5.98545 21.2534 6.04149 21.3466C6.07163 21.3953 6.08686 21.4516 6.0853 21.5088C6.08214 21.6303 6.10938 21.7396 6.167 21.8367C6.19857 21.8896 6.21159 21.9464 6.20607 22.0072C6.19739 22.1169 6.22383 22.2117 6.2854 22.2914C6.30225 22.3127 6.31461 22.3371 6.32174 22.3632C6.32886 22.3892 6.3306 22.4164 6.32684 22.4429C6.31105 22.5605 6.33473 22.6624 6.39788 22.7484C6.42393 22.7831 6.43813 22.8222 6.4405 22.8656L6.45589 23.1001C6.45745 23.1338 6.47036 23.1663 6.4926 23.1924C6.63468 23.3546 6.49497 23.5429 6.63941 23.7027C6.65326 23.7181 6.66387 23.736 6.67058 23.7553C6.6773 23.7746 6.67998 23.795 6.67849 23.8152C6.66901 23.9383 6.69546 24.0496 6.75781 24.1491C6.78788 24.1976 6.80234 24.2543 6.79925 24.3113C6.79294 24.4289 6.82017 24.5366 6.88095 24.6345C6.90858 24.6779 6.92081 24.7253 6.91765 24.7766C6.91055 24.9005 6.93897 25.0134 7.0029 25.1152C7.02737 25.1531 7.03803 25.1949 7.03487 25.2407C7.02185 25.4124 7.09999 25.5178 7.13906 25.6729C7.60714 27.542 8.08074 29.41 8.55986 31.2768C8.59302 31.407 8.57881 31.5112 8.65813 31.6308C8.68339 31.6687 8.69484 31.7105 8.69247 31.7563C8.68694 31.8834 8.71497 31.9962 8.77654 32.0949C8.80258 32.1375 8.81442 32.1837 8.81205 32.2334C8.80495 32.3589 8.83337 32.4718 8.8973 32.5721C8.92256 32.6115 8.93282 32.6541 8.92809 32.6999C8.91033 32.8906 9.01333 33.003 9.05004 33.1818C9.10766 33.4557 9.17673 33.7154 9.25724 33.9609C9.30105 34.0935 9.26908 34.2285 9.34248 34.3457C9.40524 34.4463 9.39932 34.5304 9.41353 34.6452C9.43721 34.8299 9.54377 34.9365 9.53193 35.1378C9.52877 35.1859 9.54021 35.2305 9.56626 35.2716C9.63257 35.3781 9.66019 35.4969 9.64914 35.628C9.64598 35.6651 9.65585 35.6982 9.67874 35.7274C9.75531 35.8221 9.78372 35.9362 9.76399 36.0696C9.75688 36.1185 9.76873 36.1627 9.79951 36.2022C9.8745 36.2993 9.90212 36.4118 9.88239 36.5396C9.8745 36.5894 9.88594 36.634 9.91673 36.6734C9.99171 36.7697 10.0205 36.8929 10.0032 37.0428C9.99684 37.1028 10.017 37.1506 10.0635 37.1861C10.0991 37.2137 10.1152 37.2492 10.1121 37.2927C10.1034 37.4292 10.131 37.55 10.195 37.655C10.2227 37.7005 10.236 37.7529 10.2329 37.8053C10.2265 37.9245 10.253 38.0315 10.3122 38.1262C10.3414 38.1736 10.3544 38.2249 10.3513 38.2801C10.3449 38.4001 10.3726 38.5086 10.4341 38.6057C10.4618 38.6483 10.4728 38.6953 10.4673 38.7466C10.4602 38.8224 10.4708 38.8915 10.4993 38.9538C10.5269 39.0162 10.5486 39.0789 10.5644 39.1421C10.9488 40.66 11.3324 42.1778 11.7152 43.6957C11.7539 43.8457 11.7768 43.9574 11.7839 44.0308C11.7886 44.0726 11.8021 44.1117 11.8242 44.148C11.8794 44.2396 11.9043 44.3375 11.8987 44.4417C11.8972 44.4866 11.9078 44.5281 11.9307 44.566C11.997 44.6733 12.0258 44.789 12.0171 44.9129C12.0148 44.9579 12.0254 44.9997 12.0491 45.0384C12.1154 45.1481 12.1442 45.2645 12.1355 45.3877C12.1324 45.4311 12.1422 45.4713 12.1651 45.5084C12.2346 45.6197 12.2642 45.7437 12.2539 45.8802C12.2524 45.9081 12.259 45.9356 12.2729 45.9595C12.3487 46.085 12.3862 46.2311 12.3854 46.3976C12.3852 46.4137 12.3883 46.4297 12.3944 46.4446C12.4005 46.4595 12.4095 46.473 12.4209 46.4842C12.4323 46.4955 12.4458 46.5044 12.4606 46.5102C12.4755 46.5161 12.4914 46.5189 12.5073 46.5184L12.9762 46.5066C13.0156 46.5058 13.052 46.4943 13.0851 46.4722C13.1869 46.4028 13.3014 46.3743 13.4285 46.387C13.4745 46.3908 13.5203 46.3791 13.5587 46.3538C13.6566 46.2875 13.7683 46.2571 13.8938 46.2626C13.934 46.2642 13.9727 46.2567 14.0098 46.2402C14.0722 46.2133 14.1732 46.1821 14.3129 46.1466C19.0994 44.9287 23.9033 43.7099 28.7246 42.4904C28.7656 42.4802 28.807 42.4758 28.8489 42.4774C28.9495 42.4798 29.0348 42.3815 29.1508 42.3673C29.2045 42.3602 29.2582 42.3578 29.3118 42.3602C29.3497 42.3626 29.3841 42.3531 29.4148 42.3318C29.5175 42.2607 29.6343 42.2296 29.7653 42.2382C29.8071 42.2406 29.8454 42.2311 29.8802 42.2098C30.0049 42.1309 30.1312 42.1005 30.259 42.1186C30.2914 42.1232 30.3244 42.1208 30.3557 42.1115C30.3871 42.1023 30.4161 42.0864 30.4408 42.0649C30.4655 42.0435 30.4853 42.017 30.4989 41.9873C30.5125 41.9575 30.5195 41.9252 30.5195 41.8925V7.33865C30.5195 7.28576 30.4935 7.26169 30.4414 7.26642C30.364 7.27353 30.2859 7.27668 30.2069 7.27589C29.9926 7.27353 29.8541 7.4085 29.6232 7.40614C29.5806 7.40535 29.5415 7.4164 29.506 7.43929C29.4097 7.50007 29.3016 7.52533 29.1816 7.51507C29.1327 7.51112 29.0888 7.52375 29.0502 7.55295C28.9093 7.65951 28.734 7.61334 28.5671 7.67609C28.4226 7.73055 28.2711 7.77752 28.1124 7.81698C26.0728 8.32216 23.9598 8.85219 21.7733 9.4071C16.5945 10.7221 11.5534 12.006 6.65007 13.2586C6.5372 13.2879 6.42708 13.3092 6.31973 13.3226C6.2779 13.3273 6.23843 13.3399 6.20133 13.3605C6.09399 13.4197 5.97953 13.4457 5.85797 13.4386C5.81298 13.4362 5.77154 13.4477 5.73365 13.473C5.6263 13.544 5.50317 13.5712 5.36425 13.5546C5.33393 13.5516 5.30373 13.5605 5.28018 13.5795C5.17836 13.6632 5.05522 13.6932 4.91077 13.6695C4.85552 13.6608 4.81171 13.6786 4.77935 13.7228C4.76351 13.7444 4.74236 13.7614 4.71805 13.7723C4.69373 13.7831 4.66709 13.7872 4.64082 13.7843ZM93.8031 46.3017C93.856 46.2575 93.8773 46.2003 93.8671 46.13C93.8473 45.999 93.8754 45.8881 93.9511 45.7973C93.9772 45.7658 93.9878 45.7295 93.9831 45.6884C93.9665 45.5558 93.9926 45.4366 94.0612 45.3308C94.0841 45.2961 94.0968 45.2578 94.0991 45.216C94.1054 45.1244 94.122 45.023 94.1488 44.9117C95.0739 41.1434 96.033 37.2694 97.026 33.2896C97.0465 33.2075 97.0615 33.1258 97.071 33.0445C97.0757 33.0026 97.0883 32.9636 97.1088 32.9273C97.2213 32.7295 97.1444 32.5507 97.2734 32.3577C97.2926 32.3278 97.3014 32.2924 97.2983 32.2571C97.2872 32.1261 97.3168 32.0037 97.3871 31.8901C97.4092 31.8545 97.4187 31.8159 97.4155 31.774C97.4076 31.6477 97.4364 31.5309 97.5019 31.4236C97.5264 31.3841 97.5371 31.3411 97.5339 31.2945C97.5268 31.1698 97.5564 31.0546 97.6227 30.9488C97.6464 30.9101 97.6563 30.8683 97.6523 30.8233C97.6397 30.6946 97.6665 30.575 97.7328 30.4645C97.7533 30.4298 97.7636 30.3927 97.7636 30.3532C97.7628 30.2672 97.7766 30.1839 97.805 30.1034C97.8295 30.0332 97.8504 29.9633 97.8678 29.8938C99.1678 24.5958 100.342 19.8555 101.391 15.6728C101.425 15.5402 101.445 15.4404 101.452 15.3733C101.456 15.3314 101.468 15.292 101.487 15.2549C101.546 15.1428 101.573 15.0236 101.57 14.8973C101.569 14.8397 101.582 14.7856 101.61 14.7351C101.666 14.6372 101.693 14.5283 101.689 14.4083C101.687 14.3633 101.697 14.3211 101.718 14.2816C101.804 14.1238 101.83 13.9304 101.796 13.7015C101.791 13.6683 101.771 13.6537 101.738 13.6577C101.671 13.6656 101.614 13.6435 101.567 13.5914C101.538 13.5598 101.503 13.5468 101.461 13.5523C101.325 13.5696 101.202 13.5416 101.092 13.4682C101.058 13.4453 101.02 13.4355 100.979 13.4386C100.795 13.4528 100.679 13.3676 100.514 13.3273C94.2767 11.7834 88.039 10.2414 81.8009 8.70143C80.3564 8.34465 78.985 8.00642 77.6865 7.68674C77.3921 7.61412 77.1529 7.57703 76.969 7.57545C76.924 7.57545 76.9015 7.59794 76.9015 7.64294V42.4087C76.9015 42.445 76.9189 42.4675 76.9536 42.4762L93.5568 46.6025C93.5808 46.6084 93.6058 46.6088 93.63 46.6036C93.6541 46.5985 93.6768 46.5879 93.6962 46.5728C93.7157 46.5576 93.7315 46.5383 93.7424 46.5161C93.7534 46.494 93.7591 46.4697 93.7593 46.445V46.3976C93.7593 46.3589 93.7739 46.327 93.8031 46.3017ZM53.8301 48.5478C53.8301 48.3835 53.7649 48.226 53.6487 48.1099C53.5326 47.9938 53.3751 47.9285 53.2109 47.9285H34.5321C34.3679 47.9285 34.2104 47.9938 34.0942 48.1099C33.9781 48.226 33.9129 48.3835 33.9129 48.5478V48.7372C33.9129 48.9014 33.9781 49.0589 34.0942 49.1751C34.2104 49.2912 34.3679 49.3564 34.5321 49.3564H53.2109C53.3751 49.3564 53.5326 49.2912 53.6487 49.1751C53.7649 49.0589 53.8301 48.9014 53.8301 48.7372V48.5478ZM47.3773 51.7481C47.3773 51.6662 47.3612 51.585 47.3298 51.5093C47.2984 51.4336 47.2525 51.3649 47.1945 51.3069C47.1366 51.249 47.0678 51.203 46.9921 51.1717C46.9164 51.1403 46.8353 51.1242 46.7533 51.1242H34.5345C34.4525 51.1242 34.3714 51.1403 34.2957 51.1717C34.22 51.203 34.1512 51.249 34.0932 51.3069C34.0353 51.3649 33.9893 51.4336 33.958 51.5093C33.9266 51.585 33.9105 51.6662 33.9105 51.7481V51.9305C33.9105 52.0124 33.9266 52.0935 33.958 52.1692C33.9893 52.2449 34.0353 52.3137 34.0932 52.3717C34.1512 52.4296 34.22 52.4756 34.2957 52.5069C34.3714 52.5383 34.4525 52.5544 34.5345 52.5544H46.7533C46.9188 52.5544 47.0775 52.4887 47.1945 52.3717C47.3116 52.2547 47.3773 52.0959 47.3773 51.9305V51.7481Z" fill="black"/>
</svg>
