<?xml version="1.0" standalone="no"?>
<!DOCTYPE svg PUBLIC "-//W3C//DTD SVG 20010904//EN"
 "http://www.w3.org/TR/2001/REC-SVG-20010904/DTD/svg10.dtd">
<svg version="1.0" xmlns="http://www.w3.org/2000/svg"
 width="500.000000pt" height="500.000000pt" viewBox="0 0 500.000000 500.000000"
 preserveAspectRatio="xMidYMid meet">
<metadata>
Created by potrace 1.14, written by Peter Selinger 2001-2017
</metadata>
<g transform="translate(0.000000,500.000000) scale(0.100000,-0.100000)"
fill="#000000" stroke="none">
<path d="M0 2500 l0 -2500 2500 0 2500 0 0 2500 0 2500 -2500 0 -2500 0 0
-2500z m3458 1078 c3 -45 5 -48 40 -57 20 -6 258 -65 527 -131 618 -152 565
-138 565 -158 1 -32 -452 -1847 -464 -1858 -8 -9 -91 8 -326 67 -173 43 -320
78 -327 79 -8 0 -13 -23 -15 -67 l-3 -68 -920 0 -920 0 -3 74 c-3 63 -5 73
-20 69 -9 -2 -169 -42 -354 -88 -185 -47 -339 -82 -341 -80 -5 5 -139 526
-428 1668 -29 111 -49 205 -46 208 4 4 1170 303 1185 304 1 0 2 17 2 38 0 21
3 42 7 45 3 4 419 6 922 5 l916 -3 3 -47z"/>
<path d="M1752 2668 l3 -753 780 0 780 0 3 753 2 752 -785 0 -785 0 2 -752z"/>
<path d="M1525 3336 c-22 -7 -244 -64 -493 -127 l-453 -114 4 -25 c3 -20 228
-908 305 -1202 10 -40 19 -58 30 -58 9 0 168 38 353 85 186 47 340 85 343 85
3 0 6 308 6 685 l0 685 -27 -1 c-16 0 -46 -6 -68 -13z"/>
<path d="M3452 2653 l3 -687 330 -82 c181 -46 330 -82 331 -81 1 1 61 241 133
532 72 292 145 582 161 645 16 63 26 117 22 121 -8 7 -950 239 -970 239 -10 0
-12 -141 -10 -687z"/>
<path d="M1754 1735 c-4 -8 -1 -22 6 -30 11 -13 67 -15 384 -15 204 0 377 4
384 9 8 5 12 17 10 27 -3 18 -21 19 -391 22 -340 2 -388 0 -393 -13z"/>
<path d="M1754 1605 c-13 -32 6 -35 267 -35 l259 0 0 25 0 25 -260 0 c-219 0
-262 -2 -266 -15z"/>
</g>
</svg>
